HIERARCHY
ROOT root
{
	OFFSET	0	13.1	24.9
	CHANNELS 6  Xposition Yposition Zposition Xrotation Yrotation Zrotation
	JOINT spine_1
	{
		OFFSET	0	9.99999	0
		CHANNELS 3  Xrotation Yrotation Zrotation
		JOINT spine_2
		{
			OFFSET	0	112	-10
			CHANNELS 3  Xrotation Yrotation Zrotation
			JOINT spine_3
			{
				OFFSET	0	206.5	19.3
				CHANNELS 3  Xrotation Yrotation Zrotation
				JOINT spine_4
				{
					OFFSET	0	110.4	14.6
					CHANNELS 3  Xrotation Yrotation Zrotation
					JOINT neck_1
					{
						OFFSET	0	71.8	-50.3
						CHANNELS 3  Xrotation Yrotation Zrotation
						JOINT neck_2
						{
							OFFSET	0	86.2	-25.8
							CHANNELS 3  Xrotation Yrotation Zrotation
							JOINT head_ee
							{
								OFFSET	0	179.8	-8.7
								CHANNELS 3  Xrotation Yrotation Zrotation
								End Site
								{
									OFFSET	1	0	0
								}
							}
						}
					}
					JOINT left_clavicle
					{
						OFFSET	-43.2	22.4	-70.8
						CHANNELS 3  Xrotation Yrotation Zrotation
						JOINT left_shoulder
						{
							OFFSET	-93.9	-5.79999	48.7
							CHANNELS 3  Xrotation Yrotation Zrotation
							JOINT left_elbow
							{
								OFFSET	-291.4	-30.8	15.2
								CHANNELS 3  Xrotation Yrotation Zrotation
								JOINT left_lowarm_twist
								{
									OFFSET	-110.7	-3.89999	13.6
									CHANNELS 3  Xrotation Yrotation Zrotation
									JOINT left_hand
									{
										OFFSET	-110.7	-3.89999	13.6
										CHANNELS 3  Xrotation Yrotation Zrotation
										JOINT left_ee
										{
											OFFSET	-80.8	-5.10001	12.1
											CHANNELS 3  Xrotation Yrotation Zrotation
											End Site
											{
												OFFSET	1	0	0
											}
										}
									}
								}
							}
						}
					}
					JOINT right_clavicle
					{
						OFFSET	43.2	22.4	-70.8
						CHANNELS 3  Xrotation Yrotation Zrotation
						JOINT right_shoulder
						{
							OFFSET	93.9	-5.79999	48.7
							CHANNELS 3  Xrotation Yrotation Zrotation
							JOINT right_elbow
							{
								OFFSET	291.4	-30.8	15.2
								CHANNELS 3  Xrotation Yrotation Zrotation
								JOINT right_lowarm_twist
								{
									OFFSET	110.7	-3.89999	13.6
									CHANNELS 3  Xrotation Yrotation Zrotation
									JOINT right_hand
									{
										OFFSET	110.7	-3.89999	13.6
										CHANNELS 3  Xrotation Yrotation Zrotation
										JOINT right_ee
										{
											OFFSET	80.8	-5.10001	12.1
											CHANNELS 3  Xrotation Yrotation Zrotation
											End Site
											{
												OFFSET	1	0	0
											}
										}
									}
								}
							}
						}
					}
				}
			}
		}
	}
	JOINT left_hip
	{
		OFFSET	-82.8	-127.5	0.300001
		CHANNELS 3  Xrotation Yrotation Zrotation
		JOINT left_knee
		{
			OFFSET	-28.2	-396.7	2.2
			CHANNELS 3  Xrotation Yrotation Zrotation
			JOINT left_ankle
			{
				OFFSET	-11.7	-411.3	35.4
				CHANNELS 3  Xrotation Yrotation Zrotation
				JOINT left_toes
				{
					OFFSET	0	-60	-88.6
					CHANNELS 3  Xrotation Yrotation Zrotation
					JOINT left_foot_ee
					{
						OFFSET	-22.5	-16.5	-42.2
						CHANNELS 3  Xrotation Yrotation Zrotation
						End Site
						{
							OFFSET	1	0	0
						}
					}
				}
			}
		}
	}
	JOINT right_hip
	{
		OFFSET	82.8	-127.5	0.300001
		CHANNELS 3  Xrotation Yrotation Zrotation
		JOINT right_knee
		{
			OFFSET	28.2	-396.7	2.2
			CHANNELS 3  Xrotation Yrotation Zrotation
			JOINT right_ankle
			{
				OFFSET	11.7	-411.3	35.4
				CHANNELS 3  Xrotation Yrotation Zrotation
				JOINT right_toes
				{
					OFFSET	0	-60	-88.6
					CHANNELS 3  Xrotation Yrotation Zrotation
					JOINT right_foot_ee
					{
						OFFSET	22.5	-16.5	-42.2
						CHANNELS 3  Xrotation Yrotation Zrotation
						End Site
						{
							OFFSET	1	0	0
						}
					}
				}
			}
		}
	}
}
MOTION
Frames: 5
Frame Time: 0.02
2816.64 755.302 -480.978 -161.052 -58.0457 -161.113 5.94493 0.306784 0.669003 5.94514 0.263593 0.687168 5.94804 0.188044 0.711561 5.94746 0.29806 0.672935 -15.6202 -4.26529 -8.40095 -15.4298 -3.26209 -9.35322 -0.0 0.0 -0.0 -0.282796 22.0102 2.15636 -29.0107 -20.7108 64.6907 0.441734 -12.3432 0.0477666 -10.3219 -0.475865 1.2291 0.133151 25.7846 10.9679 -0.0 0.0 -0.0 7.57861 12.9961 -14.4894 -16.2201 32.8174 -58.3084 1.11326 28.8748 -0.28662 53.7535 1.25044 6.50283 0.435206 3.08634 -1.6202 0.0 0.0 0.0 41.1208 -17.7615 -3.10641 -60.3892 -2.24216 8.56819 -22.3135 -1.94059 3.41454 20.8485 -0.0 -0.0 -0.0 0.0 -0.0 22.2448 12.5505 -8.89712 -13.7238 -0.317602 -2.07713 14.1989 -7.76392 1.9872 19.302 -0.0 -0.0 0.0 0.0 0.0 
2829.57 751.757 -477.6 -161.36 -58.5804 -161.568 6.17838 0.240107 0.721599 6.17865 0.193705 0.735415 6.1808 0.116415 0.751533 6.18008 0.233642 0.723718 -16.5449 -4.34674 -8.94094 -16.3287 -3.26016 -9.92297 -0.0 0.0 -0.0 -0.80019 22.5859 1.50348 -29.5689 -20.5396 65.0463 0.44379 -12.3989 0.0482068 -9.40934 -0.424934 1.12406 0.281369 25.8869 11.8506 -0.0 0.0 -0.0 7.48634 12.6316 -14.3084 -15.2016 32.9542 -58.0735 1.17591 30.2202 -0.317518 53.4587 1.2274 6.47291 0.62212 4.44911 -2.30651 0.0 0.0 0.0 42.2669 -17.776 -2.56936 -58.3104 -2.02033 8.33667 -21.6462 -1.5077 3.30767 19.609 -0.0 -0.0 -0.0 0.0 -0.0 21.6997 12.3655 -7.74171 -14.042 -0.319026 -2.12593 14.399 -8.68129 2.01398 19.3567 -0.0 -0.0 0.0 0.0 0.0 
2842.63 752.269 -471.496 -160.628 -58.3861 -161.132 6.34185 0.264295 0.72146 6.34211 0.217853 0.736814 6.34456 0.142449 0.755025 6.34386 0.2599 0.723055 -18.0455 -3.89934 -8.39246 -17.8554 -2.9509 -9.31166 -0.0 0.0 -0.0 -1.13478 22.6916 1.05222 -30.035 -20.543 65.0843 0.47353 -13.2015 0.0547961 -9.34001 -0.421133 1.11605 0.297961 26.2568 12.0715 -0.0 0.0 -0.0 7.4683 12.083 -14.2952 -14.2298 33.0978 -57.875 1.20205 30.771 -0.330785 53.4653 1.22791 6.47358 0.628585 4.80521 -2.20034 0.0 0.0 0.0 42.7142 -18.4671 -2.52706 -55.8712 -1.77103 8.0551 -20.9121 -2.33556 3.20379 18.7655 -0.0 -0.0 -0.0 0.0 -0.0 21.9692 12.3358 -7.43249 -14.5505 -0.320739 -2.20392 16.1043 -10.0976 2.23898 19.9272 -0.0 -0.0 0.0 0.0 0.0 
2863.58 751.421 -466.732 -159.411 -57.1262 -160.234 6.48794 0.36735 0.781829 6.48823 0.316858 0.803619 6.49226 0.236368 0.830861 6.49149 0.364616 0.783108 -17.986 -4.00723 -7.49201 -17.8412 -3.63947 -8.51124 -0.0 0.0 -0.0 -1.35734 23.3963 0.847793 -30.8535 -20.4788 65.3001 0.453689 -12.6666 0.0503551 -8.84801 -0.39444 1.05906 0.400528 25.71 12.4744 -0.0 0.0 -0.0 7.4212 11.1519 -14.2351 -13.7341 33.1078 -57.4216 1.28128 32.4023 -0.372289 53.5526 1.23471 6.48245 0.741372 6.03459 -2.4431 0.0 0.0 0.0 43.9691 -18.5696 -2.5872 -52.9069 -1.48465 7.69921 -20.6314 -2.81977 3.16595 18.1287 -0.0 -0.0 -0.0 0.0 -0.0 21.0958 13.0677 -7.10105 -14.9918 -0.321664 -2.27164 18.152 -10.9204 2.50408 19.468 -0.0 -0.0 0.0 0.0 0.0 
2878.48 753.29 -458.027 -158.685 -56.5189 -159.604 6.8398 0.361918 0.772445 6.84007 0.312033 0.793908 6.84397 0.237554 0.81928 6.84322 0.363959 0.771485 -16.8449 -4.31007 -7.44372 -16.7042 -4.08601 -8.52322 -0.0 0.0 -0.0 -1.05478 23.2665 1.24422 -32.2549 -19.6281 64.3527 0.448766 -12.5336 0.0492813 -8.63709 -0.383148 1.03456 0.488934 24.7221 12.6545 -0.0 0.0 -0.0 8.14743 11.7286 -15.7694 -13.1734 33.051 -56.799 1.23542 31.465 -0.348031 52.646 1.16468 6.38982 0.708775 6.93265 -1.84295 0.0 0.0 0.0 43.1084 -21.1403 -3.05978 -46.8315 -0.957551 6.92678 -22.7249 -3.14347 3.49203 16.7734 -0.0 -0.0 -0.0 0.0 -0.0 20.1726 11.6033 -6.86133 -15.0627 -0.321764 -2.28251 18.5607 -11.724 2.5585 20.438 -0.0 -0.0 0.0 0.0 0.0 
